<?xml version="1.0" standalone="no"?>
<!DOCTYPE svg PUBLIC "-//W3C//DTD SVG 20010904//EN"
 "http://www.w3.org/TR/2001/REC-SVG-20010904/DTD/svg10.dtd">
<svg version="1.0" xmlns="http://www.w3.org/2000/svg"
 width="900.000000pt" height="900.000000pt" viewBox="0 0 900.000000 900.000000"
 preserveAspectRatio="xMidYMid meet">
<metadata>
Created by potrace 1.10, written by Peter Selinger 2001-2011
</metadata>
<g transform="translate(0.000000,900.000000) scale(0.100000,-0.100000)"
fill="#000000" stroke="none">
<path d="M4715 6594 c-16 -2 -64 -11 -105 -20 -41 -8 -109 -22 -150 -30 -41
-8 -106 -21 -145 -29 -122 -24 -229 -44 -267 -50 -40 -6 -49 -19 -22 -29 52
-20 947 -36 958 -17 9 14 -20 74 -50 104 -59 59 -131 82 -219 71z"/>
<path d="M3694 6362 c-28 -9 -67 -29 -86 -44 -39 -30 -78 -100 -78 -139 0 -13
-6 -80 -15 -149 -8 -69 -22 -197 -30 -285 -9 -88 -22 -216 -31 -285 -8 -69
-14 -138 -14 -155 0 -16 -6 -86 -15 -155 -8 -69 -21 -199 -30 -290 -25 -264
-45 -465 -60 -605 -8 -72 -15 -153 -15 -180 0 -28 -5 -77 -10 -110 -6 -33 -15
-115 -20 -183 -5 -67 -15 -151 -21 -186 -13 -67 -5 -132 12 -105 5 7 9 32 9
54 0 22 7 51 15 65 8 14 14 36 15 49 0 13 6 47 14 75 20 71 37 144 46 191 4
22 13 63 20 90 6 28 18 75 25 105 7 30 19 78 25 105 7 28 16 66 20 85 17 73
38 167 50 215 24 98 39 161 53 220 8 33 21 83 27 110 7 28 16 68 20 90 4 22
13 63 20 90 6 28 18 76 26 108 8 31 20 83 28 115 8 31 20 80 26 107 7 28 16
68 20 90 9 49 28 126 46 184 8 25 14 53 14 64 0 11 6 43 14 71 8 28 22 80 31
116 9 36 23 88 31 116 8 28 14 59 14 69 0 58 61 206 96 234 13 10 24 23 24 29
0 5 -51 15 -112 21 -62 7 -122 14 -133 16 -11 2 -43 -4 -71 -13z"/>
<path d="M4131 6333 c-63 -19 -146 -94 -153 -140 -3 -15 -11 -50 -18 -78 -28
-114 -42 -173 -55 -225 -7 -30 -19 -77 -25 -105 -7 -27 -16 -66 -20 -85 -4
-19 -13 -57 -20 -85 -6 -27 -18 -76 -26 -107 -8 -32 -20 -84 -28 -115 -8 -32
-20 -80 -26 -108 -7 -27 -16 -68 -20 -90 -4 -22 -12 -60 -19 -85 -7 -25 -18
-70 -26 -100 -7 -30 -19 -77 -25 -105 -7 -27 -16 -68 -20 -90 -4 -22 -13 -62
-20 -90 -6 -27 -19 -77 -27 -110 -8 -33 -21 -83 -29 -111 -8 -28 -14 -59 -14
-69 0 -10 -6 -41 -14 -69 -8 -28 -22 -82 -31 -121 -9 -38 -22 -95 -30 -125 -7
-30 -19 -77 -25 -105 -7 -27 -16 -68 -20 -90 -4 -22 -13 -62 -20 -90 -6 -27
-19 -77 -27 -110 -8 -33 -21 -83 -29 -111 -8 -28 -14 -63 -14 -78 0 -38 23
-28 31 13 4 18 12 38 18 44 6 6 11 17 11 25 0 8 6 28 14 45 14 33 36 90 60
155 8 20 22 57 31 82 9 25 23 62 31 83 8 20 21 56 30 80 9 23 22 58 29 77 19
53 51 138 91 243 9 23 22 56 29 72 7 17 20 48 28 70 8 22 23 60 32 85 9 25 23
62 31 83 8 20 20 54 28 75 8 20 21 56 30 80 19 50 40 106 62 165 8 23 22 55
30 70 8 16 14 35 14 42 0 7 6 26 14 42 8 15 21 46 29 68 8 22 22 59 31 83 9
23 23 61 32 85 9 23 22 59 30 80 8 20 21 56 30 80 9 23 22 59 30 80 8 20 21
56 30 80 9 23 22 59 30 80 8 20 20 54 28 75 8 20 21 56 30 80 9 23 23 61 32
85 37 96 58 129 115 179 61 53 63 68 10 68 -13 0 -47 6 -75 14 -61 17 -183 46
-188 45 -1 0 -27 -8 -57 -16z"/>
<path d="M4567 6342 c-8 -12 15 -22 54 -22 15 0 63 -7 106 -16 43 -8 114 -22
158 -30 44 -8 113 -21 153 -29 39 -8 105 -21 145 -29 39 -8 107 -21 150 -30
42 -9 112 -23 155 -31 42 -9 106 -22 142 -30 89 -21 140 -20 140 1 0 71 -66
164 -139 196 -43 19 -75 20 -552 26 -345 3 -508 2 -512 -6z"/>
<path d="M3305 6310 c-110 -11 -158 -39 -208 -120 -21 -34 -22 -44 -20 -260 2
-124 10 -380 18 -570 18 -420 34 -833 45 -1160 13 -376 30 -761 37 -800 6 -33
6 -34 13 -10 5 14 8 48 9 75 1 28 7 104 15 170 20 162 36 319 46 445 4 58 13
148 19 200 6 52 17 165 26 250 30 316 46 478 60 605 26 246 38 360 45 455 4
52 13 140 19 195 36 305 41 354 41 388 0 21 11 59 25 86 13 27 21 51 18 55 -8
7 -114 5 -208 -4z"/>
<path d="M4542 6211 c-84 -34 -115 -70 -156 -178 -9 -24 -23 -62 -32 -85 -9
-24 -22 -60 -30 -80 -8 -21 -21 -57 -30 -80 -9 -24 -22 -60 -30 -80 -44 -119
-73 -196 -89 -233 -15 -34 -46 -115 -91 -237 -8 -21 -21 -56 -29 -78 -8 -22
-22 -58 -30 -80 -8 -22 -22 -59 -31 -82 -25 -66 -45 -120 -59 -158 -31 -86
-48 -127 -61 -153 -8 -16 -14 -35 -14 -42 0 -14 -20 -66 -46 -118 -8 -16 -14
-35 -14 -44 0 -8 -6 -27 -14 -41 -8 -15 -21 -45 -29 -67 -8 -22 -23 -60 -32
-85 -9 -25 -23 -61 -30 -80 -7 -19 -20 -54 -29 -77 -9 -24 -23 -62 -32 -85 -8
-24 -22 -56 -30 -71 -8 -16 -14 -36 -14 -46 0 -9 -7 -26 -15 -37 -8 -10 -15
-27 -15 -36 0 -9 -6 -29 -14 -45 -13 -26 -25 -56 -62 -155 -18 -48 -40 -106
-60 -160 -9 -24 -23 -61 -31 -83 -8 -22 -21 -53 -28 -70 -12 -30 -30 -76 -60
-155 -8 -22 -22 -58 -31 -79 -24 -58 -22 -157 5 -208 25 -50 91 -100 161 -123
14 -5 50 -18 80 -30 30 -12 66 -25 80 -30 14 -5 50 -18 80 -30 30 -12 66 -25
80 -30 14 -5 50 -18 80 -30 30 -12 66 -25 80 -30 14 -5 50 -18 80 -30 30 -12
66 -25 80 -30 14 -5 50 -18 80 -30 30 -12 66 -25 80 -30 14 -5 50 -18 80 -30
30 -12 66 -25 80 -30 14 -5 50 -18 80 -30 30 -12 66 -25 80 -30 14 -5 50 -18
80 -30 30 -12 66 -25 80 -30 14 -5 50 -18 80 -30 30 -12 66 -25 80 -30 14 -5
50 -18 80 -30 30 -12 66 -25 80 -30 14 -5 50 -18 80 -30 62 -24 153 -50 176
-50 9 0 41 7 71 16 81 23 149 98 173 189 5 17 18 55 30 85 41 106 51 135 60
165 4 17 18 55 30 85 45 118 52 136 57 160 3 14 10 30 15 37 6 7 14 27 18 45
5 18 18 58 30 88 12 30 26 69 30 85 9 30 19 59 60 165 12 30 25 69 30 85 5 17
18 55 30 85 12 30 25 69 30 85 5 17 18 55 30 85 12 30 25 69 30 85 5 17 18 55
30 85 41 106 51 135 60 165 4 17 18 55 30 85 12 30 25 69 30 85 5 17 18 55 30
85 41 106 51 135 60 165 4 17 18 55 30 85 41 106 51 135 60 165 4 17 18 55 30
85 40 105 51 135 60 165 9 30 20 60 60 165 12 30 25 69 30 85 5 17 18 55 30
85 21 52 34 95 47 149 3 12 0 48 -8 80 -11 46 -22 65 -66 109 -30 28 -60 52
-68 52 -8 0 -29 6 -47 14 -18 8 -51 21 -73 29 -22 8 -59 22 -82 31 -24 9 -62
23 -85 32 -24 9 -59 22 -78 29 -86 31 -127 48 -153 61 -16 8 -35 14 -42 14 -7
0 -26 6 -42 14 -26 13 -67 30 -153 61 -19 7 -53 19 -75 28 -22 8 -58 21 -80
30 -22 8 -60 23 -85 32 -25 9 -63 24 -85 32 -93 35 -122 46 -150 58 -16 7 -48
20 -70 28 -22 8 -60 23 -85 32 -25 9 -62 23 -82 31 -21 8 -57 21 -80 30 -24 9
-59 22 -78 29 -60 22 -124 46 -158 61 -43 18 -87 17 -140 -5z"/>
<path d="M3019 6215 c-3 -2 -34 -9 -70 -14 -266 -40 -339 -75 -388 -186 -25
-57 -26 -79 -6 -165 8 -36 22 -103 30 -150 9 -47 22 -116 30 -155 8 -38 21
-106 29 -150 37 -201 48 -254 61 -312 8 -34 15 -72 15 -85 0 -12 6 -52 15 -88
8 -36 22 -103 30 -150 24 -127 45 -228 61 -297 8 -34 14 -72 14 -85 0 -12 6
-52 15 -88 8 -36 21 -101 30 -145 9 -44 23 -109 31 -145 8 -36 14 -74 14 -85
0 -11 6 -49 15 -85 8 -36 22 -103 30 -150 9 -47 23 -118 31 -157 8 -40 20
-106 28 -145 8 -40 22 -107 30 -148 9 -41 17 -88 17 -105 0 -16 4 -39 8 -49 6
-16 9 -17 17 -5 10 17 7 447 -6 709 -6 102 -12 257 -15 345 -6 182 -28 745
-50 1290 -17 428 -21 690 -10 758 7 44 5 54 -6 42z"/>
<path d="M4932 6188 c3 -7 18 -15 34 -19 16 -3 38 -10 49 -16 19 -10 60 -27
148 -59 20 -8 55 -21 77 -29 22 -8 58 -22 80 -30 22 -8 58 -22 80 -30 22 -8
57 -21 78 -29 77 -28 119 -45 197 -76 75 -30 100 -40 193 -74 20 -8 57 -22 82
-31 25 -9 61 -23 80 -30 86 -31 127 -48 153 -61 16 -8 33 -12 38 -8 16 10 10
110 -10 155 -32 71 -122 139 -184 139 -12 0 -51 6 -87 14 -36 8 -100 22 -143
30 -42 9 -110 22 -150 30 -39 8 -110 22 -157 31 -47 9 -114 23 -150 30 -36 8
-101 21 -145 30 -44 9 -109 22 -145 30 -80 19 -123 19 -118 3z"/>
<path d="M3204 2867 c-8 -21 42 -112 79 -144 41 -36 95 -56 197 -73 134 -23
153 -24 148 -9 -3 8 -15 16 -29 17 -13 2 -32 10 -43 18 -11 8 -27 14 -34 14
-8 0 -28 6 -45 14 -18 8 -59 24 -92 37 -42 17 -78 41 -118 81 -35 35 -60 52
-63 45z"/>
<path d="M3175 2728 c-10 -26 39 -93 94 -127 48 -29 58 -31 144 -31 94 0 140
11 95 23 -12 4 -39 7 -59 7 -83 0 -204 58 -247 117 -17 24 -22 25 -27 11z"/>
</g>
</svg>
