<?xml version="1.0" standalone="no"?>
<!DOCTYPE svg PUBLIC "-//W3C//DTD SVG 20010904//EN"
 "http://www.w3.org/TR/2001/REC-SVG-20010904/DTD/svg10.dtd">
<svg version="1.0" xmlns="http://www.w3.org/2000/svg"
 width="300.000000pt" height="300.000000pt" viewBox="0 0 300.000000 300.000000"
 preserveAspectRatio="xMidYMid meet">
<metadata>
Created by potrace 1.10, written by Peter Selinger 2001-2011
</metadata>
<g transform="translate(0.000000,300.000000) scale(0.100000,-0.100000)"
fill="#000000" stroke="none">
<path d="M1056 2094 c-12 -11 -16 -36 -16 -90 l0 -74 460 0 460 0 0 78 c0 47
-5 83 -12 90 -9 9 -121 12 -444 12 -380 0 -434 -2 -448 -16z m477 -34 c19 -15
40 -20 84 -20 61 0 83 -11 83 -42 0 -31 -35 -38 -198 -38 -140 0 -163 2 -182
18 -19 16 -21 22 -11 40 10 19 20 22 72 22 46 0 67 5 86 20 14 11 29 20 33 20
4 0 19 -9 33 -20z m-423 -51 c0 -28 -4 -39 -15 -39 -11 0 -15 11 -15 38 0 21
3 42 6 45 14 13 24 -6 24 -44z m70 0 c0 -28 -4 -39 -15 -39 -11 0 -15 11 -15
38 0 21 3 42 6 45 14 13 24 -6 24 -44z m60 0 c0 -28 -4 -39 -15 -39 -11 0 -15
11 -15 38 0 21 3 42 6 45 14 13 24 -6 24 -44z m550 0 c0 -28 -4 -39 -15 -39
-11 0 -15 11 -15 38 0 21 3 42 6 45 14 13 24 -6 24 -44z m66 27 c8 -34 1 -61
-16 -61 -16 0 -26 45 -16 71 8 22 25 17 32 -10z m64 -27 c0 -28 -4 -39 -15
-39 -11 0 -15 11 -15 38 0 21 3 42 6 45 14 13 24 -6 24 -44z"/>
<path d="M1040 1416 c0 -427 2 -486 16 -500 14 -14 68 -16 448 -16 323 0 435
3 444 12 9 9 12 134 12 500 l0 488 -460 0 -460 0 0 -484z m814 393 l26 -20 0
-367 c0 -362 0 -366 -22 -389 l-21 -23 -338 0 -338 0 -20 26 c-20 26 -21 38
-21 386 l0 359 25 24 24 25 329 0 c318 0 330 -1 356 -21z"/>
<path d="M1281 1724 c-9 -25 -23 -40 -42 -47 l-29 -11 0 -196 0 -195 31 -18
c17 -9 36 -31 42 -47 l11 -30 211 0 211 0 11 30 c6 16 25 38 42 47 l31 18 0
195 0 196 -30 11 c-20 7 -35 24 -45 47 l-15 36 -208 0 -208 0 -13 -36z m84
-33 c7 -12 -12 -24 -25 -16 -11 7 -4 25 10 25 5 0 11 -4 15 -9z m311 -71 c13
0 11 -6 -10 -25 -26 -24 -27 -24 -46 -5 -19 19 -19 19 3 44 21 24 22 24 29 5
4 -10 15 -19 24 -19z m-356 20 c0 -5 -4 -10 -10 -10 -5 0 -10 5 -10 10 0 6 5
10 10 10 6 0 10 -4 10 -10z m80 0 c0 -5 -2 -10 -4 -10 -3 0 -8 5 -11 10 -3 6
-1 10 4 10 6 0 11 -4 11 -10z m350 -210 c0 -5 -4 -10 -10 -10 -5 0 -10 5 -10
10 0 6 5 10 10 10 6 0 10 -4 10 -10z m-439 -93 c-13 -13 -26 -3 -16 12 3 6 11
8 17 5 6 -4 6 -10 -1 -17z"/>
<path d="M1320 1095 c0 -13 27 -15 185 -15 158 0 185 2 185 15 0 13 -27 15
-185 15 -158 0 -185 -2 -185 -15z"/>
</g>
</svg>
